<svg id="Layer_1" data-name="Layer 1" xmlns="http://www.w3.org/2000/svg" viewBox="0 0 330.5 148.1"><defs><style>.cls-1{fill:#fff;stroke:#fff;stroke-miterlimit:10;stroke-width:0.25px;}</style></defs><polygon class="cls-1" points="198 53.6 198 50 203 47.6 207.4 47.6 210 50.6 212.3 53.6 212 57.6 212 61.6 210 65.6 207 68.6 203.3 71.1 196.5 71.1 196.5 68 200 66.6 204.4 63.1 204.4 59.4 204.4 55.2 198 53.6"/><polygon class="cls-1" points="118.3 47.6 194.1 47.6 194.1 56.3 194.1 62.3 194.1 68 192 73.6 189 78.6 181 86.6 177.6 88.1 172 92.6 167 94.6 160.7 94.6 154 94.6 147.6 94.6 142 91.6 137 89.6 132 85.6 126 81.6 122 73.6 118.3 67.6 116.8 59.4 116.8 52.2 118.3 47.6"/><polygon class="cls-1" points="110 98.6 201 98.6 196 106.6 115.8 106.6 110 98.6"/><path class="cls-1" d="M3.6,12,6.1,9.2,4.3,19H1.2l.5-9.8h30l.4,9.8h-3L27.3,9.2,29.8,12ZM17.2,43l7.7.9v2.2H8.4V43.9l7.7-.9Zm-3-16.7c0-5.7,0-11.4-.2-17.1h5.3c-.1,5.6-.1,11.3-.1,17.1V29c0,5.7,0,11.4.1,17.1H14c.2-5.6.2-11.3.2-17.1Z"/><path class="cls-1" d="M38.1,34.5V31.9c0-3-.1-4.7-.2-6.9l-4.4-.5V22.6L41,19.3l.8.5.7,6.9v7.8c0,3.4,0,9.1.1,11.6H37.9C38,43.6,38.1,37.9,38.1,34.5Zm-4.2,9.6L40,43h1.1l6,1.1v2H33.9Zm6.4-17h3.1l-1.4.4c1.8-5.2,5.1-8.2,8.4-8.2a4.7,4.7,0,0,1,3.9,1.8c0,2.6-1,4.1-3.2,4.1a4.7,4.7,0,0,1-3.3-1.4l-1.5-1.2L49,22c-3.4,1.8-5.4,4.5-6.6,8.8H40.3Z"/><path class="cls-1" d="M56.7,33.1c0-9.1,6.2-13.8,12.5-13.8S81.7,24,81.7,33.1,75.4,46.8,69.2,46.8,56.7,42.3,56.7,33.1Zm20.1,0c0-7.3-2.8-11.4-7.6-11.4s-7.6,4.1-7.6,11.4,2.7,11.2,7.6,11.2S76.8,40.5,76.8,33.1Z"/><path class="cls-1" d="M83.7,56.2c.4-1.6,2-2.3,3.7-2.3s2.5.5,4,2l1.7,1.7-2.2,1.2-1.5-1.2c3.7-1.8,5.9-5.6,7.3-9.5l1.7-4.7L106.9,20h2.9l-9.7,25.7c-3.8,9.9-6.9,14.1-11.4,14.1C86,59.8,83.7,58.3,83.7,56.2Zm5.6-33.5-5.4-.8V20H97v2l-6.6.7Zm8.2,26.2L86,20h5.1l8.7,23.4Zm9.4-26.2-5.9-.8V20h10.8v1.9l-3.8.8Z"/><path class="cls-1" d="M143.7,35.3a7.9,7.9,0,0,0,8.3,8c3.9,0,7.7-1.7,9.7-4.5l1.7,1.4a14.6,14.6,0,0,1-12.7,6.6c-6.9,0-11.6-4.5-11.6-10.1s3.4-9.3,9.8-12.2l1.1,1.6C144.9,28.5,143.7,32.2,143.7,35.3ZM147.1,25c-2.7-3.1-3.8-6-3.8-8.9,0-4.7,3.8-7.7,9-7.7s8.3,2.9,8.3,7-3,6.9-9.6,10.3l-.8-1.5c3.9-2.6,6.8-5.2,6.8-8.7s-2.1-5.2-4.8-5.2a5.1,5.1,0,0,0-5.1,5.2c0,2,.5,3.7,2.5,6.2s3.8,4.4,7.2,8.2l13.4,14.4L167.5,43l7.1.9-.2,2.3a15.8,15.8,0,0,1-4.2.6,7.6,7.6,0,0,1-6.3-2.6c-3.6-4-6.3-7.1-9.2-10.2Zm21-.8h2.6A41.6,41.6,0,0,1,163.6,40l-1.8-1.1A38.4,38.4,0,0,0,168.1,24.2Zm.6,1.3-5.2-.8V22.5h11.1v2.2l-4.8.8Z"/><path class="cls-1" d="M203.2,43.9l5.5-.9h1.1l6,.9v2.2H203.2Zm16.4-35h3.3l12.6,37.2h-5.1l-11-33h1.2l-11.2,33h-2.6Zm-6.5,22.6H228l.9,2.5H212.3ZM224,43.9l6.9-.9H232l6.8.9v2.2H224Z"/><path class="cls-1" d="M241,44.1l6-1.1-1.9,3.1c.2-2.5.2-8.2.2-11.6V10.3l-4.6-.5v-2L249,5.4l.8.4-.3,7.8V24.2l.2.7V41.7l-.5,4.9-8.2-.5Zm22.8-10.9c0-7.1-2.9-10.9-7.1-10.9-2,0-4.7.9-8.7,4.9l-.5-1c3.2-4.8,6.8-6.9,10.5-6.9,5.8,0,10.5,5,10.5,13.4s-4.9,14.1-11.3,14.1c-3.4,0-6.8-1.5-9.7-7.2l.5-.9c2.9,3.6,5.8,5,8.4,5S263.8,40.3,263.8,33.2Z"/><path class="cls-1" d="M296.2,29.8a13.5,13.5,0,0,1-.3,3.1H275.6V30.5h13c2.7,0,3.3-1.2,3.3-2.8a6.1,6.1,0,0,0-6.1-6c-3.5,0-7.6,3-7.6,10.9s3.5,10.7,9,10.7c3.5,0,5.7-1.6,7.7-3.9l1.3,1a11.2,11.2,0,0,1-10.5,6.4c-7.4,0-12.2-5.1-12.2-13.5s5.7-14,12.6-14S296.2,23.1,296.2,29.8Z"/><path class="cls-1" d="M313.9,43.7c2.9,0,4.8-1.2,7.3-4.4l.5,1.5c-2.1,3.7-4.7,6-9,6-6.7,0-11.2-5.6-11.2-13.6s5-13.9,11.7-13.9c3.2,0,5.9,1.2,8.7,5.5l-.5,1.5c-3.2-3.1-5.4-4-7.5-4-4.1,0-7.7,3.3-7.7,10.8S309.5,43.7,313.9,43.7Zm15.3.4v2l-8.4.5-.5-5.6V10.3l-4.7-.5v-2l8.4-2.4.8.4-.2,7.8V46.1l-.9-2.9Z"/><path class="cls-1" d="M90.2,107.5l-5.1,24.1H83.4l5.1-24.1Z"/><path class="cls-1" d="M91.4,118.9c.8-3.6,1-4.7,1.2-5.4h1.6c-.1.3-.2.9-.4,1.8a4.2,4.2,0,0,1,3.6-2.1c1.8,0,3.3,1,2.6,4.2l-3,14.2H95.3l2.9-13.9c.4-1.8.2-3-1.5-3s-3,1.4-3.7,5l-2.6,11.9H88.7Z"/><path class="cls-1" d="M112.1,113.5h2.2l1-4.7H117l-1.1,4.7h2.7l-.4,1.5h-2.6l-2.9,13.3c-.3,1.4,0,2.1,1.1,2.1l1.4-.2-.3,1.4a4.7,4.7,0,0,1-1.7.2c-1.6,0-2.7-.7-2.2-3.2l2.9-13.6h-2.1Z"/><path class="cls-1" d="M123.9,106.5l-1.9,8.8a3.7,3.7,0,0,1,3.4-2.1c2.7,0,3.2,2,2.6,4.6l-2.9,13.8h-1.7l2.8-13.4c.4-1.9.5-3.5-1.4-3.5s-3.1,2.2-3.7,5l-2.5,11.9h-1.7l5.3-25.1Z"/><path class="cls-1" d="M131.6,122.7c-.1.6-.5,2.3-.6,3.2-.6,2.5-.5,4.5,1.6,4.5s2.3-1.5,2.8-3.5v-.5h1.6v.6c-.5,2.2-1.2,4.9-4.6,4.9s-3.7-3.2-3.1-6.4l1.4-6.6c.6-2.8,1.5-5.7,4.9-5.7s3.7,3.2,3.2,5.7c-.2.7-.7,3-.8,3.8Zm5-1.5a28,28,0,0,0,.6-2.8c.5-2,.1-3.8-1.8-3.8s-2.6,2.4-2.9,4.1l-.6,2.5Z"/><path class="cls-1" d="M162.3,120.8c1-4.6,2-9.1,2.6-11.5h0c-1.5,3.9-6,15-8.9,22.3h-1.8c.2-6.2.6-18.3.8-22.3h0c-.5,2.7-1.6,8.1-2.5,12.2l-2.1,10.1h-1.6l5.1-24.1h2.5c-.1,8-.4,18.1-.6,20.9h0c.9-2.7,5.4-13.7,8.5-20.9h2.5l-5.1,24.1H160Z"/><path class="cls-1" d="M175.9,118.9l-1.5,7.5c-.9,4-2.1,5.5-5,5.5s-4.2-1.6-3.3-5.7l1.6-7.9c.6-2.8,1.7-5.1,4.8-5.1S176.7,115.2,175.9,118.9Zm-6.4-.6-1.8,8.1c-.6,2.9.4,4,1.9,4s2.3-.8,3-3.8l1.7-7.9c.5-2.5-.1-4-1.9-4S170,116,169.5,118.3Z"/><path class="cls-1" d="M178.8,119.6c.7-2.8,1.1-4.9,1.3-6.1h1.6a15.2,15.2,0,0,1-.5,2.6,5,5,0,0,1,4.2-2.9l-.4,2c-2.4.2-4,2.1-4.6,5.1L178,131.6h-1.7Z"/><path class="cls-1" d="M186.2,118.9c.7-3.6,1-4.7,1.1-5.4h1.6a10.5,10.5,0,0,1-.3,1.8,4,4,0,0,1,3.6-2.1c1.7,0,3.2,1,2.5,4.2l-3,14.2H190l3-13.9c.4-1.8.2-3-1.5-3s-3,1.4-3.8,5l-2.5,11.9h-1.7Z"/><path class="cls-1" d="M199.1,113.5h1.7l-3.9,18.1h-1.7Zm1.5-7h1.7l-.8,3.5h-1.7Z"/><path class="cls-1" d="M203.2,118.9c.8-3.6,1-4.7,1.2-5.4H206c-.1.3-.2.9-.4,1.8a4.2,4.2,0,0,1,3.7-2.1c1.7,0,3.2,1,2.5,4.2l-3,14.2h-1.7l2.9-13.9c.4-1.8.2-3-1.4-3s-3.1,1.4-3.8,5l-2.5,11.9h-1.7Z"/><path class="cls-1" d="M220.2,131.5c-.8,3.6-1.3,6.5-5.3,6.5s-3.8-2.4-3.5-4.1v-.2h1.7v.2c-.1,1-.1,2.6,2,2.6s2.6-1.6,3.3-4.6l.5-2.5c-.7,1.2-1.4,2.1-3.2,2.1s-3.2-2.7-2.7-5.2l1.7-8.1c.5-2.4,1.7-5,4.5-5a2.6,2.6,0,0,1,2.8,2.1,12.7,12.7,0,0,1,.4-1.8h1.7a38.5,38.5,0,0,0-1.1,4.9Zm-3.8-13.1-1.7,7.8c-.4,2-.3,3.8,1.6,3.8s3.2-3.1,3.7-5.7l.9-4c.6-2.6.9-5.6-1.6-5.6S216.8,116.5,216.4,118.4Z"/></svg>